<?xml version="1.0" standalone="no"?>
<!DOCTYPE svg PUBLIC "-//W3C//DTD SVG 20010904//EN"
 "http://www.w3.org/TR/2001/REC-SVG-20010904/DTD/svg10.dtd">
<svg version="1.0" xmlns="http://www.w3.org/2000/svg"
 width="100%" height="100%" viewBox="170 150 692 665"
 preserveAspectRatio="xMidYMid meet">

<g transform="translate(0.000000,1024) scale(0.100000,-0.100000)"
fill="#2563eb" stroke="none">
<path d="M4903 8588 c-712 -46 -1460 -366 -1991 -849 -376 -343 -698 -842
-856 -1324 -107 -327 -152 -614 -155 -985 -3 -449 74 -842 244 -1236 30 -70
60 -133 66 -140 17 -20 47 -17 59 6 9 16 2 41 -39 133 -134 306 -211 602 -242
942 -15 153 -6 575 15 711 50 331 130 598 266 880 243 508 597 919 1060 1233
385 261 829 435 1310 515 377 62 848 44 1254 -50 382 -88 815 -286 1148 -527
38 -27 75 -47 84 -45 26 5 41 35 28 56 -6 9 -81 64 -166 122 -388 261 -880
458 -1313 524 -223 34 -552 49 -772 34z"/>
<path d="M7618 7801 c-31 -10 -155 -70 -275 -134 -120 -63 -246 -129 -280
-146 -78 -39 -90 -67 -47 -112 15 -16 26 -30 23 -32 -38 -29 -277 -106 -469
-152 -296 -70 -388 -98 -475 -140 -111 -55 -235 -152 -315 -247 -117 -141
-262 -370 -304 -480 -10 -24 -26 -49 -36 -56 -22 -13 -289 -138 -940 -437
-392 -180 -677 -318 -695 -336 -33 -32 -26 -102 18 -183 20 -37 37 -71 37 -76
0 -4 -19 -19 -42 -32 -76 -42 -69 -84 40 -254 62 -97 279 -441 378 -599 182
-291 221 -335 302 -342 45 -4 87 15 1181 565 846 424 1139 576 1154 597 27 37
26 103 -3 152 -21 35 -21 38 -4 68 25 48 13 85 -76 234 -45 74 -79 135 -77
138 2 2 60 33 128 69 246 130 369 231 590 484 41 47 82 96 91 109 21 30 32 22
48 -34 15 -54 51 -95 82 -95 23 0 60 17 168 76 30 17 134 72 231 123 200 105
250 142 274 206 22 55 15 106 -30 230 -84 234 -228 503 -369 692 -118 157
-178 185 -308 144z m121 -66 c46 -23 152 -155 243 -300 127 -202 278 -553 278
-645 0 -27 -9 -42 -43 -74 -50 -47 -334 -203 -346 -190 -4 5 -18 45 -31 89
-76 262 -269 619 -473 874 -32 40 -55 77 -50 81 12 12 312 161 342 170 39 12
49 11 80 -5z m-434 -287 c134 -162 279 -400 378 -623 48 -108 117 -304 117
-333 0 -12 -22 -28 -65 -50 -36 -17 -68 -32 -73 -32 -4 0 -13 19 -20 43 -108
348 -190 532 -338 753 -65 99 -180 224 -206 224 -4 0 -8 7 -8 15 0 12 115 80
141 84 3 1 36 -36 74 -81z m-150 -165 c56 -57 161 -220 230 -356 63 -125 135
-309 135 -343 0 -10 -13 -33 -28 -50 -15 -18 -78 -91 -140 -163 -123 -143
-265 -275 -370 -345 -37 -24 -121 -72 -186 -107 l-119 -62 -21 26 c-22 28 -79
136 -120 229 l-26 58 40 20 c25 13 84 26 158 35 149 19 202 35 279 85 57 37
123 101 123 118 0 4 -9 13 -21 20 -23 15 -21 15 -114 -58 -69 -55 -135 -77
-283 -96 -84 -10 -145 -24 -180 -39 -63 -29 -151 -111 -237 -220 -78 -99 -203
-222 -269 -264 -80 -50 -170 -41 -202 21 -34 66 -16 122 80 245 141 184 362
541 382 620 17 64 -34 72 -72 12 -27 -44 -39 -50 -334 -184 -63 -28 -157 -71
-208 -95 -51 -24 -95 -41 -98 -38 -9 10 62 142 132 245 207 305 382 435 674
502 288 66 490 122 640 180 58 22 108 40 111 40 4 1 23 -16 44 -36z m-1020
-761 c-5 -4 -31 -39 -56 -77 l-46 -71 -139 -63 c-77 -35 -177 -81 -222 -103
-46 -21 -85 -38 -87 -38 -4 0 -596 -277 -755 -353 -63 -30 -155 -74 -205 -97
-49 -23 -130 -62 -180 -85 -49 -23 -133 -63 -185 -87 -120 -56 -126 -64 -110
-123 16 -56 7 -90 -32 -127 -31 -29 -31 -29 -15 -61 9 -18 58 -97 108 -177 97
-153 195 -317 218 -362 17 -33 21 -34 69 -9 20 10 50 21 65 25 43 10 106 -24
150 -84 23 -30 45 -50 57 -50 23 0 82 27 430 198 244 119 401 196 972 475 168
82 260 133 268 147 8 16 9 30 1 52 -19 53 -13 101 17 149 16 24 36 50 45 58
24 19 21 36 -17 100 -42 69 -116 235 -116 260 0 26 76 109 88 96 6 -5 21 -37
35 -70 29 -68 91 -179 225 -401 51 -84 92 -159 92 -167 0 -9 -12 -25 -28 -35
-45 -33 -2209 -1112 -2229 -1112 -4 0 -20 19 -34 43 -15 23 -98 152 -184 287
-87 135 -169 263 -182 285 -13 22 -51 83 -84 135 -123 191 -192 306 -211 349
-22 52 -19 57 57 89 28 11 120 54 205 95 85 41 243 115 350 165 107 49 319
147 470 217 389 180 525 242 605 276 39 17 97 43 130 58 33 16 103 47 155 70
52 23 136 62 185 86 77 37 151 60 120 37z m-191 -289 c-16 -21 -61 -82 -101
-135 -41 -54 -85 -121 -98 -150 -45 -96 -28 -180 49 -243 34 -27 45 -30 104
-30 105 0 163 33 300 173 62 63 114 113 115 111 2 -2 31 -63 66 -135 l63 -131
-31 -43 c-40 -55 -54 -108 -46 -173 l7 -52 -319 -157 c-175 -86 -502 -247
-728 -358 -225 -111 -439 -216 -474 -232 l-65 -30 -40 46 c-67 75 -148 101
-227 72 l-36 -13 -146 231 c-80 127 -149 238 -152 247 -3 9 6 38 20 65 23 43
26 56 20 107 l-6 58 56 25 c58 25 430 200 750 351 218 104 425 201 730 341 44
20 105 49 135 64 76 37 86 35 54 -9z m869 -898 c26 -54 22 -80 -15 -108 -18
-14 -400 -208 -848 -433 -1439 -721 -1386 -695 -1415 -688 -48 12 -83 63 -526
762 -98 155 -179 287 -179 292 0 14 42 40 66 40 17 0 40 -29 107 -137 185
-301 447 -711 481 -755 28 -37 42 -48 64 -47 15 0 522 248 1132 553 608 305
1108 554 1111 555 3 0 13 -15 22 -34z"/>
<path d="M5251 5810 c-92 -34 -159 -93 -209 -185 -24 -45 -27 -60 -27 -145 1
-76 5 -105 22 -142 30 -64 100 -132 170 -165 49 -23 72 -28 143 -28 72 0 94 4
145 28 104 48 162 118 190 226 39 151 -38 319 -177 389 -84 43 -178 51 -257
22z m219 -80 c105 -54 170 -167 156 -272 -14 -105 -102 -215 -190 -239 -133
-36 -298 46 -340 168 -20 58 -21 153 -2 197 18 43 81 113 120 133 90 47 180
52 256 13z"/>
<path d="M4644 5291 c-42 -26 -61 -79 -45 -130 40 -134 231 -110 231 29 0 96
-103 151 -186 101z m122 -77 c26 -38 -21 -92 -70 -80 -35 9 -53 47 -38 81 23
50 75 49 108 -1z"/>
<path d="M3987 7273 c-3 -5 -12 -37 -21 -73 -21 -80 -73 -139 -149 -168 -28
-10 -53 -24 -55 -30 -1 -5 23 -18 55 -27 83 -24 136 -80 153 -160 7 -33 17
-66 22 -73 17 -20 35 3 41 53 14 98 75 166 165 180 32 5 42 11 42 26 0 14 -12
22 -47 31 -66 16 -135 86 -152 153 -7 28 -17 60 -22 73 -9 22 -24 29 -32 15z
m59 -219 l45 -46 -41 -39 c-22 -21 -40 -44 -40 -49 0 -6 -23 12 -51 40 l-51
51 43 43 c24 24 46 44 47 44 2 1 24 -19 48 -44z"/>
<path d="M2919 6531 c-38 -38 -44 -56 -39 -121 4 -59 68 -110 138 -110 34 0
49 6 79 33 31 29 37 41 40 88 8 90 -46 149 -136 149 -37 0 -49 -5 -82 -39z
m144 -53 c21 -25 21 -40 2 -77 -32 -63 -117 -41 -123 31 -6 69 75 100 121 46z"/>
<path d="M8188 6449 c-25 -14 -23 -35 11 -126 39 -106 86 -308 113 -483 18
-121 22 -188 22 -410 1 -277 -5 -340 -50 -575 -76 -392 -208 -732 -412 -1058
-183 -291 -429 -564 -722 -800 -328 -264 -746 -470 -1170 -577 -156 -39 -304
-69 -430 -86 -149 -21 -506 -29 -672 -15 -389 33 -793 153 -1196 358 -92 46
-176 82 -187 81 -15 -2 -20 -11 -20 -32 0 -27 9 -34 115 -93 345 -189 766
-330 1143 -384 254 -36 610 -35 827 1 30 5 89 14 130 20 199 30 512 120 740
212 350 142 670 345 961 612 513 468 835 1047 973 1746 74 375 72 811 -4 1180
-45 214 -116 429 -145 437 -5 1 -18 -2 -27 -8z"/>
<path d="M7613 5270 c-18 -4 -44 -15 -58 -24 -68 -45 -58 -181 17 -222 41 -23
113 -17 147 12 105 88 26 262 -106 234z m71 -82 c22 -31 20 -60 -5 -92 -40
-50 -109 -20 -109 48 0 61 81 91 114 44z"/>
<path d="M6984 4281 c-48 -29 -64 -59 -64 -119 0 -50 3 -58 39 -93 34 -34 44
-39 86 -39 84 0 135 50 135 132 0 106 -109 172 -196 119z m114 -74 c45 -41 15
-117 -48 -117 -54 0 -91 70 -57 112 31 40 64 41 105 5z"/>
<path d="M5625 4199 c-55 -32 -73 -38 -85 -30 -105 77 -123 74 -410 -66 -397
-193 -405 -196 -473 -189 -90 9 -193 48 -363 137 -84 43 -201 96 -260 116
-106 37 -113 38 -249 38 -157 0 -203 -11 -368 -88 l-87 -40 -39 21 c-42 24
-111 29 -157 12 -22 -9 -36 -6 -77 15 -59 29 -82 30 -159 10 -99 -25 -522
-187 -545 -208 -30 -27 -47 -81 -39 -127 13 -80 180 -457 343 -770 154 -298
190 -340 288 -340 42 0 93 19 304 110 259 112 305 139 316 191 5 21 19 34 61
54 57 28 90 66 100 117 7 32 26 38 127 38 100 0 254 -34 467 -105 305 -100
331 -106 487 -112 92 -4 169 -2 219 7 351 56 952 391 1295 722 89 85 119 137
119 204 0 107 -64 172 -177 182 -57 4 -63 7 -74 35 -15 36 -92 87 -132 87 -16
0 -58 -14 -94 -31 l-65 -31 -32 30 c-44 42 -68 52 -123 52 -38 0 -63 -8 -118
-41z m193 -46 c17 -8 32 -19 32 -23 0 -5 -90 -63 -199 -130 -110 -66 -204
-127 -210 -134 -14 -17 -4 -46 16 -46 15 0 211 113 408 235 167 104 191 111
241 79 58 -39 54 -45 -94 -141 -218 -142 -512 -313 -538 -313 -7 0 -15 11 -18
25 -17 66 -123 134 -214 136 -20 1 -48 4 -62 8 -23 7 -21 10 35 38 34 17 154
86 269 153 114 66 217 125 229 130 25 10 58 5 105 -17z m-357 -3 c10 -6 19
-17 19 -25 0 -13 -164 -112 -363 -219 l-88 -48 -97 7 c-92 6 -111 10 -101 19
19 19 560 275 582 276 16 0 37 -5 48 -10z m-1559 -24 c106 -21 153 -39 343
-131 182 -88 248 -115 335 -139 93 -26 297 -55 470 -66 228 -15 266 -24 312
-70 63 -63 46 -135 -42 -180 -66 -34 -209 -53 -345 -46 -334 16 -522 19 -543
7 -29 -15 -28 -39 1 -50 27 -10 460 -26 630 -23 222 5 339 47 387 143 16 29
35 44 114 82 107 52 259 140 454 264 150 95 187 113 236 113 100 0 151 -96 98
-182 -27 -44 -210 -208 -332 -298 -121 -89 -417 -266 -540 -323 -169 -78 -191
-88 -279 -117 -134 -45 -258 -63 -381 -56 -124 7 -216 28 -439 100 -299 98
-412 120 -571 115 -88 -4 -95 -3 -98 16 -23 140 -174 485 -294 673 -23 34 -39
64 -37 66 13 11 175 76 216 85 145 35 196 38 305 17z m-876 -72 c53 -33 140
-169 225 -349 115 -245 247 -631 237 -696 -3 -27 -25 -40 -237 -132 -309 -135
-324 -137 -383 -68 -75 88 -450 861 -478 985 -14 63 5 88 87 115 37 12 140 50
228 83 242 91 269 96 321 62z m207 -3 c111 -43 361 -536 418 -825 l13 -69 -39
-33 c-53 -46 -72 -44 -85 9 -58 229 -245 672 -351 830 -43 66 -48 83 -21 90
29 8 40 7 65 -2z"/>
</g>
</svg>
